<?xml version="1.0" standalone="no"?>
<!DOCTYPE svg PUBLIC "-//W3C//DTD SVG 20010904//EN"
 "http://www.w3.org/TR/2001/REC-SVG-20010904/DTD/svg10.dtd">
<svg version="1.0" xmlns="http://www.w3.org/2000/svg"
 width="200.000000pt" height="200.000000pt" viewBox="0 0 200.000000 200.000000"
 preserveAspectRatio="xMidYMid meet">

<g transform="translate(0.000000,200.000000) scale(0.100000,-0.100000)"
fill="#000000" stroke="none">
<path d="M0 1000 l0 -1000 1000 0 1000 0 0 1000 0 1000 -1000 0 -1000 0 0
-1000z m1220 100 l0 -154 -65 64 -65 64 0 93 0 93 -90 0 -90 0 0 -157 0 -157
-65 64 -65 64 0 153 0 152 93 3 92 3 3 59 3 60 125 -125 124 -124 0 -155z
m-90 -335 l0 -115 -25 0 -25 0 0 115 0 115 25 0 25 0 0 -115z m-420 70 c0 -16
6 -25 15 -25 9 0 15 -9 15 -25 0 -16 -6 -25 -15 -25 -12 0 -15 -13 -15 -55 0
-52 -1 -55 -25 -55 -24 0 -25 3 -25 54 0 39 -4 55 -15 60 -8 3 -15 15 -15 26
0 11 7 20 15 20 9 0 15 9 15 25 0 20 5 25 25 25 20 0 25 -5 25 -25z m728 -2
c2 -13 10 -23 18 -23 19 0 18 -39 -1 -46 -11 -5 -15 -21 -15 -60 0 -53 0 -54
-30 -54 -30 0 -30 1 -30 55 0 30 -4 55 -10 55 -5 0 -10 11 -10 25 0 14 5 25
10 25 6 0 10 8 10 18 0 25 10 33 35 30 12 -2 21 -12 23 -25z m122 2 c0 -16 6
-25 15 -25 9 0 15 -9 15 -25 0 -16 -6 -25 -15 -25 -12 0 -15 -13 -15 -55 0
-52 -1 -55 -25 -55 -24 0 -25 3 -25 54 0 39 -4 55 -15 60 -8 3 -15 15 -15 26
0 11 7 20 15 20 9 0 15 9 15 25 0 20 5 25 25 25 20 0 25 -5 25 -25z m-1325
-40 c21 -20 25 -34 25 -85 l0 -60 -30 0 c-30 0 -30 1 -30 54 0 30 -5 58 -10
61 -22 13 -40 -17 -40 -66 0 -46 -2 -49 -25 -49 -25 0 -25 1 -25 79 l0 80 43
4 c23 2 48 4 55 5 7 1 24 -9 37 -23z m188 -7 c9 -11 17 -33 17 -49 0 -28 -1
-29 -51 -29 -34 0 -48 -4 -43 -11 3 -6 24 -9 45 -7 35 3 39 1 39 -19 0 -44
-94 -42 -130 4 -65 83 54 193 123 111z m605 -4 c32 -36 29 -79 -8 -116 -25
-24 -36 -29 -60 -25 -26 6 -29 3 -32 -21 -2 -19 -9 -28 -25 -30 -23 -3 -23 -2
-23 107 l0 110 43 4 c59 5 79 -1 105 -29z m268 26 l34 0 0 -80 c0 -76 -1 -80
-22 -80 -13 0 -40 -3 -60 -6 -31 -5 -41 -2 -62 19 -29 29 -35 89 -12 119 15
21 56 38 74 32 8 -2 29 -4 48 -4z m427 -1 c26 -12 47 -47 47 -79 0 -17 -7 -20
-51 -20 -34 0 -48 -4 -43 -11 3 -6 24 -9 45 -7 35 3 39 1 39 -19 0 -45 -115
-39 -140 8 -14 25 -12 81 4 101 11 15 48 36 68 37 4 1 18 -4 31 -10z m177 -18
c0 -23 -5 -30 -22 -33 -20 -3 -23 -10 -26 -55 -3 -49 -5 -53 -28 -53 -23 0
-24 2 -24 79 l0 80 43 4 c23 2 45 4 50 5 4 1 7 -11 7 -27z m-1374 2 c13 -17
15 -17 25 0 6 10 22 17 40 17 l29 0 -26 -39 -25 -39 25 -41 26 -41 -29 0 c-18
0 -34 7 -40 18 -10 16 -12 16 -25 0 -13 -17 -66 -26 -66 -10 0 4 9 18 20 32
25 32 25 41 -1 84 l-21 36 27 0 c15 0 34 -8 41 -17z m324 -48 c0 -23 -4 -25
-45 -25 -41 0 -45 2 -45 25 0 23 4 25 45 25 41 0 45 -2 45 -25z m-204 -187
c-3 -13 -5 -31 -5 -40 -1 -27 -18 -22 -23 6 -3 15 2 31 11 40 20 21 22 20 17
-6z m-326 2 c0 -5 -6 -10 -12 -10 -9 0 -9 -3 1 -9 17 -11 7 -41 -14 -41 -8 0
-15 5 -15 10 0 6 6 10 13 10 8 0 8 3 -2 9 -17 11 -7 41 14 41 8 0 15 -4 15
-10z m52 -35 c-2 -14 -8 -25 -12 -25 -9 0 -18 41 -12 58 7 23 29 -7 24 -33z
m180 -1 c-2 -13 -8 -24 -13 -24 -10 0 -12 53 -2 63 11 12 20 -12 15 -39z m280
-2 l-5 -26 -9 24 c-10 28 -2 62 11 42 4 -8 6 -25 3 -40z m388 13 c0 -29 -4
-35 -20 -35 -32 0 -37 30 -9 51 13 10 25 19 27 19 1 0 2 -16 2 -35z m381 12
c-1 -4 -1 -16 -1 -27 0 -11 -4 -20 -9 -20 -10 0 -21 47 -13 55 7 7 24 2 23 -8z
m-1151 -23 c0 -21 -4 -25 -22 -22 -15 2 -24 11 -26 26 -3 18 1 22 22 22 21 0
26 -5 26 -26z m53 19 c-7 -2 -13 -13 -13 -24 0 -10 -4 -19 -10 -19 -5 0 -10
11 -10 25 0 19 5 25 23 24 12 0 16 -3 10 -6z m217 -18 c0 -18 -5 -25 -19 -25
-11 0 -23 5 -26 10 -11 18 3 40 25 40 15 0 20 -7 20 -25z m56 16 c-4 -5 -1
-11 6 -13 15 -5 1 -28 -18 -28 -8 0 -14 10 -14 25 0 16 6 25 16 25 8 0 13 -4
10 -9z m134 -16 c0 -18 -5 -25 -19 -25 -11 0 -23 5 -26 10 -11 18 3 40 25 40
15 0 20 -7 20 -25z m53 18 c-7 -2 -13 -13 -13 -24 0 -10 -4 -19 -10 -19 -5 0
-10 11 -10 25 0 19 5 25 23 24 12 0 16 -3 10 -6z m107 -18 c0 -18 -5 -25 -19
-25 -11 0 -23 5 -26 10 -11 18 3 40 25 40 15 0 20 -7 20 -25z m78 -2 c2 -13
-1 -23 -7 -23 -6 0 -11 10 -12 23 l0 22 -9 -22 c-12 -30 -20 -29 -20 3 0 21 4
25 23 22 14 -2 23 -11 25 -25z m170 2 c1 -18 -3 -25 -16 -25 -13 0 -18 6 -16
23 3 29 2 27 17 27 7 0 14 -11 15 -25z m101 -2 l0 -28 -11 25 -11 25 -6 -25
-7 -25 -8 25 -8 25 -8 -25 -8 -25 -1 28 c-1 24 2 27 34 27 32 0 35 -3 34 -27z
m81 2 c0 -20 -5 -25 -24 -25 -13 0 -26 6 -29 13 -7 22 4 37 29 37 19 0 24 -5
24 -25z m42 0 c-2 -14 -8 -25 -13 -25 -5 0 -9 11 -9 25 0 14 6 25 14 25 9 0
12 -8 8 -25z m132 16 c10 -16 -6 -42 -23 -39 -9 2 -17 13 -19 26 -3 16 2 22
17 22 11 0 22 -4 25 -9z m48 -16 c-2 -14 -8 -25 -13 -25 -5 0 -9 11 -9 25 0
14 6 25 14 25 9 0 12 -8 8 -25z"/>
<path d="M345 760 c-4 -6 5 -10 20 -10 15 0 24 4 20 10 -3 6 -12 10 -20 10 -8
0 -17 -4 -20 -10z"/>
<path d="M940 756 c-18 -23 -8 -61 17 -64 29 -4 48 30 33 58 -13 24 -33 26
-50 6z"/>
<path d="M1220 756 c-19 -24 -4 -68 22 -64 29 4 46 33 32 56 -15 23 -38 26
-54 8z"/>
<path d="M1675 760 c-4 -6 5 -10 20 -10 15 0 24 4 20 10 -3 6 -12 10 -20 10
-8 0 -17 -4 -20 -10z"/>
<path d="M1190 530 c0 -5 5 -10 11 -10 5 0 7 5 4 10 -3 6 -8 10 -11 10 -2 0
-4 -4 -4 -10z"/>
<path d="M410 530 c0 -5 5 -10 10 -10 6 0 10 5 10 10 0 6 -4 10 -10 10 -5 0
-10 -4 -10 -10z"/>
<path d="M690 530 c0 -5 5 -10 11 -10 5 0 7 5 4 10 -3 6 -8 10 -11 10 -2 0 -4
-4 -4 -10z"/>
<path d="M1040 530 c0 -5 5 -10 11 -10 5 0 7 5 4 10 -3 6 -8 10 -11 10 -2 0
-4 -4 -4 -10z"/>
<path d="M1460 530 c0 -5 5 -10 10 -10 6 0 10 5 10 10 0 6 -4 10 -10 10 -5 0
-10 -4 -10 -10z"/>
</g>
</svg>
